<svg height="512pt" viewBox="-26 0 512 512" width="512pt" xmlns="http://www.w3.org/2000/svg"><path d="m460.015625 378.25c0-73.871094-102.976563-133.753906-230.007813-133.753906s-230.007812 59.882812-230.007812 133.753906c0 73.867188 102.976562 133.75 230.007812 133.75s230.007813-59.882812 230.007813-133.75zm0 0" fill="#8ed7e8"/><path d="m427.621094 446.730469c-34.980469-23.480469-99.273438-56.257813-197.613282-68.484375-102.324218-12.71875-119.679687-72.796875-118.871093-114.527344-66.609375 23.429688-111.136719 65.957031-111.136719 114.527344 0 73.871094 102.976562 133.753906 230.007812 133.753906 83.992188 0 157.46875-26.179688 197.613282-65.269531zm0 0" fill="#7ac1dd"/><path d="m266.800781 36.796875c0 20.320313-16.472656 36.792969-36.792969 36.792969-20.320312 0-36.796874-16.472656-36.796874-36.792969 0-20.324219 16.476562-36.796875 36.796874-36.796875 20.320313 0 36.792969 16.472656 36.792969 36.796875zm0 0" fill="#ccf8ff"/><path d="m266.800781 237.714844v-79.3125c0-20.320313-16.472656-36.796875-36.792969-36.796875-20.320312 0-36.792968 16.476562-36.792968 36.796875v79.3125c0 25.941406-15.628906 49.480468-39.71875 59.109375-35.472656 14.175781-58.738282 37.9375-58.738282 64.859375 0 43.4375 60.554688 78.648437 135.25 78.648437 74.695313 0 135.25-35.210937 135.25-78.648437 0-26.921875-23.261718-50.683594-58.738281-64.859375-24.089843-9.628907-39.71875-33.167969-39.71875-59.109375zm0 0" fill="#abebf4"/><path d="m230.007812 440.332031c47.347657 0 89.015626-14.148437 113.179688-35.574219-31.023438-11.203124-68.605469-20.96875-113.179688-26.511718-64.027343-7.957032-94.789062-34.464844-108.644531-63.410156-16.714843 13.085937-26.605469 29.296874-26.605469 46.847656 0 43.4375 60.554688 78.648437 135.25 78.648437zm0 0" fill="#8ed7e8"/></svg>